<svg width="84" height="84" viewBox="0 0 84 84" fill="none" xmlns="http://www.w3.org/2000/svg">
<g filter="url(#filter0_d_1950_298)">
<path d="M64 5H10C7.23858 5 5 7.23858 5 10V64C5 66.7614 7.23858 69 10 69H64C66.7614 69 69 66.7614 69 64V10C69 7.23858 66.7614 5 64 5Z" fill="white"/>
</g>
<mask id="mask0_1950_298" style="mask-type:alpha" maskUnits="userSpaceOnUse" x="17" y="17" width="41" height="41">
<rect x="17" y="17" width="40.7656" height="40.7656" fill="#80BEF9"/>
</mask>
<g mask="url(#mask0_1950_298)">
<path d="M43.3258 50.8441L36.1069 43.6252L38.4849 41.2472L43.3258 46.0881L52.9228 36.4912L55.3008 38.8692L43.3258 50.8441ZM52.668 33.9858H49.2708V25.493H45.8737V30.5887H28.888V25.493H25.4909V49.2729H35.6823V52.6701H25.4909C24.5567 52.6701 23.7569 52.3374 23.0917 51.6722C22.4264 51.0069 22.0938 50.2072 22.0938 49.2729V25.493C22.0938 24.5588 22.4264 23.759 23.0917 23.0938C23.7569 22.4285 24.5567 22.0959 25.4909 22.0959H32.5824C32.8938 21.105 33.5025 20.2911 34.4084 19.6542C35.3143 19.0172 36.3051 18.6987 37.3809 18.6987C38.5132 18.6987 39.5253 19.0172 40.4171 19.6542C41.3088 20.2911 41.9104 21.105 42.2218 22.0959H49.2708C50.205 22.0959 51.0048 22.4285 51.6701 23.0938C52.3353 23.759 52.668 24.5588 52.668 25.493V33.9858ZM37.3809 25.493C37.8621 25.493 38.2655 25.3302 38.5911 25.0047C38.9166 24.6791 39.0794 24.2757 39.0794 23.7944C39.0794 23.3132 38.9166 22.9098 38.5911 22.5842C38.2655 22.2586 37.8621 22.0959 37.3809 22.0959C36.8996 22.0959 36.4962 22.2586 36.1706 22.5842C35.8451 22.9098 35.6823 23.3132 35.6823 23.7944C35.6823 24.2757 35.8451 24.6791 36.1706 25.0047C36.4962 25.3302 36.8996 25.493 37.3809 25.493Z" fill="#80BEF9"/>
</g>
<defs>
<filter id="filter0_d_1950_298" x="0" y="0" width="84" height="84" filterUnits="userSpaceOnUse" color-interpolation-filters="sRGB">
<feFlood flood-opacity="0" result="BackgroundImageFix"/>
<feColorMatrix in="SourceAlpha" type="matrix" values="0 0 0 0 0 0 0 0 0 0 0 0 0 0 0 0 0 0 127 0" result="hardAlpha"/>
<feOffset dx="5" dy="5"/>
<feGaussianBlur stdDeviation="5"/>
<feColorMatrix type="matrix" values="0 0 0 0 0.0862745 0 0 0 0 0.360784 0 0 0 0 0.768627 0 0 0 0.161 0"/>
<feBlend mode="normal" in2="BackgroundImageFix" result="effect1_dropShadow_1950_298"/>
<feBlend mode="normal" in="SourceGraphic" in2="effect1_dropShadow_1950_298" result="shape"/>
</filter>
</defs>
</svg>
