<svg width="94" height="94" viewBox="0 0 94 94" fill="none" xmlns="http://www.w3.org/2000/svg">
<g filter="url(#filter0_d_2063_297)">
<path d="M69 10H15C12.2386 10 10 12.2386 10 15V69C10 71.7614 12.2386 74 15 74H69C71.7614 74 74 71.7614 74 69V15C74 12.2386 71.7614 10 69 10Z" fill="white"/>
</g>
<mask id="mask0_2063_297" style="mask-type:alpha" maskUnits="userSpaceOnUse" x="22" y="22" width="40" height="40">
<rect x="22" y="22" width="40" height="40" fill="#D9D9D9"/>
</mask>
<g mask="url(#mask0_2063_297)">
<path d="M35.9154 47.8613H37.9432L39.3042 44.278H44.7209L46.0542 47.8613H48.1654L43.0542 34.4724H40.9709L35.9154 47.8613ZM39.8876 42.4724L41.9432 36.8057H42.0542L44.1376 42.4724H39.8876ZM41.9987 58.6668C39.6931 58.6668 37.5265 58.2293 35.4987 57.3543C33.4709 56.4793 31.707 55.2918 30.207 53.7918C28.707 52.2918 27.5195 50.5279 26.6445 48.5002C25.7695 46.4724 25.332 44.3057 25.332 42.0002C25.332 40.8242 25.4478 39.6784 25.6792 38.5627C25.9107 37.4469 26.2626 36.3566 26.7348 35.2918L28.8459 37.4029C28.6237 38.1622 28.4454 38.9236 28.3112 39.6871C28.1769 40.4507 28.1098 41.2217 28.1098 42.0002C28.1098 45.8775 29.4553 49.1616 32.1462 51.8526C34.8372 54.5436 38.1214 55.8891 41.9987 55.8891C45.876 55.8891 49.1602 54.5436 51.8512 51.8526C54.5421 49.1616 55.8876 45.8775 55.8876 42.0002C55.8876 38.1229 54.5414 34.8387 51.8488 32.1477C49.1563 29.4567 45.8703 28.1112 41.9907 28.1112C41.209 28.1112 40.436 28.1762 39.6717 28.3061C38.9075 28.436 38.1507 28.6164 37.4014 28.8474L35.2765 26.7224C36.3505 26.2965 37.4292 25.9585 38.5126 25.7085C39.5959 25.4585 40.7209 25.3335 41.8876 25.3335C44.1999 25.3335 46.3728 25.771 48.4065 26.646C50.4402 27.521 52.2158 28.7085 53.7334 30.2085C55.2509 31.7085 56.4523 33.4724 57.3375 35.5002C58.2228 37.5279 58.6654 39.6946 58.6654 42.0002C58.6654 44.3057 58.2279 46.4724 57.3529 48.5002C56.4779 50.5279 55.2904 52.2918 53.7904 53.7918C52.2904 55.2918 50.5265 56.4793 48.4987 57.3543C46.4709 58.2293 44.3043 58.6668 41.9987 58.6668ZM30.9677 33.139C30.3495 33.139 29.8251 32.9227 29.3945 32.49C28.964 32.0572 28.7487 31.5317 28.7487 30.9135C28.7487 30.2954 28.9651 29.771 29.3978 29.3405C29.8305 28.9099 30.356 28.6946 30.9742 28.6946C31.5924 28.6946 32.1167 28.911 32.5473 29.3437C32.9778 29.7764 33.1931 30.3019 33.1931 30.9201C33.1931 31.5383 32.9768 32.0626 32.544 32.4932C32.1113 32.9238 31.5859 33.139 30.9677 33.139Z" fill="#0078D4"/>
</g>
<defs>
<filter id="filter0_d_2063_297" x="5" y="5" width="84" height="84" filterUnits="userSpaceOnUse" color-interpolation-filters="sRGB">
<feFlood flood-opacity="0" result="BackgroundImageFix"/>
<feColorMatrix in="SourceAlpha" type="matrix" values="0 0 0 0 0 0 0 0 0 0 0 0 0 0 0 0 0 0 127 0" result="hardAlpha"/>
<feOffset dx="5" dy="5"/>
<feGaussianBlur stdDeviation="5"/>
<feColorMatrix type="matrix" values="0 0 0 0 0.0862745 0 0 0 0 0.360784 0 0 0 0 0.768627 0 0 0 0.161 0"/>
<feBlend mode="normal" in2="BackgroundImageFix" result="effect1_dropShadow_2063_297"/>
<feBlend mode="normal" in="SourceGraphic" in2="effect1_dropShadow_2063_297" result="shape"/>
</filter>
</defs>
</svg>
