<svg width="84" height="84" viewBox="0 0 84 84" fill="none" xmlns="http://www.w3.org/2000/svg">
<g filter="url(#filter0_d_1950_297)">
<path d="M64 5H10C7.23858 5 5 7.23858 5 10V64C5 66.7614 7.23858 69 10 69H64C66.7614 69 69 66.7614 69 64V10C69 7.23858 66.7614 5 64 5Z" fill="white"/>
</g>
<mask id="mask0_1950_297" style="mask-type:alpha" maskUnits="userSpaceOnUse" x="19" y="19" width="36" height="36">
<rect x="19" y="19" width="36" height="36" fill="#D9D9D9"/>
</mask>
<g mask="url(#mask0_1950_297)">
<path d="M31 37H43V34H31V37ZM31 31H43V28H31V31ZM48.925 49.7125L42.85 41.8C42.425 41.225 41.9 40.7812 41.275 40.4688C40.65 40.1563 39.975 40 39.25 40H25V25C25 24.175 25.2938 23.4688 25.8813 22.8813C26.4688 22.2938 27.175 22 28 22H46C46.825 22 47.5313 22.2938 48.1188 22.8813C48.7063 23.4688 49 24.175 49 25V49C49 49.125 48.9938 49.2438 48.9813 49.3563C48.9688 49.4688 48.95 49.5875 48.925 49.7125ZM28 52C27.175 52 26.4688 51.7063 25.8813 51.1188C25.2938 50.5313 25 49.825 25 49V43H39.25C39.5 43 39.7313 43.0563 39.9438 43.1688C40.1563 43.2813 40.3375 43.4375 40.4875 43.6375L46.7875 51.8875C46.6625 51.9375 46.5312 51.9688 46.3937 51.9813C46.2562 51.9938 46.125 52 46 52H28Z" fill="#8FB93B"/>
</g>
<defs>
<filter id="filter0_d_1950_297" x="0" y="0" width="84" height="84" filterUnits="userSpaceOnUse" color-interpolation-filters="sRGB">
<feFlood flood-opacity="0" result="BackgroundImageFix"/>
<feColorMatrix in="SourceAlpha" type="matrix" values="0 0 0 0 0 0 0 0 0 0 0 0 0 0 0 0 0 0 127 0" result="hardAlpha"/>
<feOffset dx="5" dy="5"/>
<feGaussianBlur stdDeviation="5"/>
<feColorMatrix type="matrix" values="0 0 0 0 0.0862745 0 0 0 0 0.360784 0 0 0 0 0.768627 0 0 0 0.161 0"/>
<feBlend mode="normal" in2="BackgroundImageFix" result="effect1_dropShadow_1950_297"/>
<feBlend mode="normal" in="SourceGraphic" in2="effect1_dropShadow_1950_297" result="shape"/>
</filter>
</defs>
</svg>
