<svg width="84" height="84" viewBox="0 0 84 84" fill="none" xmlns="http://www.w3.org/2000/svg">
<g filter="url(#filter0_d_1950_299)">
<path d="M64 5H10C7.23858 5 5 7.23858 5 10V64C5 66.7614 7.23858 69 10 69H64C66.7614 69 69 66.7614 69 64V10C69 7.23858 66.7614 5 64 5Z" fill="white"/>
</g>
<mask id="mask0_1950_299" style="mask-type:alpha" maskUnits="userSpaceOnUse" x="15" y="15" width="44" height="44">
<rect x="15" y="15" width="44" height="44" fill="#FF6A6A"/>
</mask>
<g mask="url(#mask0_1950_299)">
<path d="M30.218 43.4165H32.693L34.068 39.6582H39.9346L41.3096 43.4165H43.8763L38.2846 28.7498H35.718L30.218 43.4165ZM34.8013 37.5498L36.9096 31.4998H37.093L39.2013 37.5498H34.8013ZM37.0013 55.3332C34.4652 55.3332 32.0819 54.8519 29.8513 53.8894C27.6207 52.9269 25.6805 51.6207 24.0305 49.9707C22.3805 48.3207 21.0742 46.3804 20.1117 44.1498C19.1492 41.9193 18.668 39.5359 18.668 36.9998C18.668 35.6859 18.8055 34.395 19.0805 33.1269C19.3555 31.8589 19.7527 30.629 20.2721 29.4373L23.1138 32.279C22.8694 33.0734 22.6784 33.8603 22.5409 34.6394C22.4034 35.4186 22.3346 36.2054 22.3346 36.9998C22.3346 41.0943 23.7555 44.5623 26.5971 47.404C29.4388 50.2457 32.9069 51.6665 37.0013 51.6665C41.0957 51.6665 44.5638 50.2457 47.4055 47.404C50.2471 44.5623 51.668 41.0943 51.668 36.9998C51.668 32.9054 50.2471 29.4373 47.4055 26.5957C44.5638 23.754 41.0957 22.3332 37.0013 22.3332C36.1763 22.3332 35.3742 22.4019 34.5951 22.5394C33.8159 22.6769 33.0444 22.8679 32.2805 23.1123L29.4846 20.3165C30.7069 19.7665 31.9291 19.354 33.1513 19.079C34.3735 18.804 35.6569 18.6665 37.0013 18.6665C39.5374 18.6665 41.9207 19.1478 44.1513 20.1103C46.3819 21.0728 48.3221 22.379 49.9721 24.029C51.6221 25.679 52.9284 27.6193 53.8909 29.8498C54.8534 32.0804 55.3346 34.4637 55.3346 36.9998C55.3346 39.5359 54.8534 41.9193 53.8909 44.1498C52.9284 46.3804 51.6221 48.3207 49.9721 49.9707C48.3221 51.6207 46.3819 52.9269 44.1513 53.8894C41.9207 54.8519 39.5374 55.3332 37.0013 55.3332ZM25.0846 27.8332C24.3207 27.8332 23.6714 27.5658 23.1367 27.0311C22.602 26.4964 22.3346 25.8471 22.3346 25.0832C22.3346 24.3193 22.602 23.67 23.1367 23.1353C23.6714 22.6005 24.3207 22.3332 25.0846 22.3332C25.8485 22.3332 26.4978 22.6005 27.0326 23.1353C27.5673 23.67 27.8346 24.3193 27.8346 25.0832C27.8346 25.8471 27.5673 26.4964 27.0326 27.0311C26.4978 27.5658 25.8485 27.8332 25.0846 27.8332ZM26.0013 36.9998C26.0013 33.9443 27.0707 31.3471 29.2096 29.2082C31.3485 27.0693 33.9457 25.9998 37.0013 25.9998C40.0569 25.9998 42.6541 27.0693 44.793 29.2082C46.9319 31.3471 48.0013 33.9443 48.0013 36.9998C48.0013 40.0554 46.9319 42.6526 44.793 44.7915C42.6541 46.9304 40.0569 47.9998 37.0013 47.9998C33.9457 47.9998 31.3485 46.9304 29.2096 44.7915C27.0707 42.6526 26.0013 40.0554 26.0013 36.9998Z" fill="#FF6A6A"/>
</g>
<defs>
<filter id="filter0_d_1950_299" x="0" y="0" width="84" height="84" filterUnits="userSpaceOnUse" color-interpolation-filters="sRGB">
<feFlood flood-opacity="0" result="BackgroundImageFix"/>
<feColorMatrix in="SourceAlpha" type="matrix" values="0 0 0 0 0 0 0 0 0 0 0 0 0 0 0 0 0 0 127 0" result="hardAlpha"/>
<feOffset dx="5" dy="5"/>
<feGaussianBlur stdDeviation="5"/>
<feColorMatrix type="matrix" values="0 0 0 0 0.0862745 0 0 0 0 0.360784 0 0 0 0 0.768627 0 0 0 0.161 0"/>
<feBlend mode="normal" in2="BackgroundImageFix" result="effect1_dropShadow_1950_299"/>
<feBlend mode="normal" in="SourceGraphic" in2="effect1_dropShadow_1950_299" result="shape"/>
</filter>
</defs>
</svg>
