<svg width="94" height="94" viewBox="0 0 94 94" fill="none" xmlns="http://www.w3.org/2000/svg">
<g filter="url(#filter0_d_2063_282)">
<path d="M69 10H15C12.2386 10 10 12.2386 10 15V69C10 71.7614 12.2386 74 15 74H69C71.7614 74 74 71.7614 74 69V15C74 12.2386 71.7614 10 69 10Z" fill="white"/>
</g>
<mask id="mask0_2063_282" style="mask-type:alpha" maskUnits="userSpaceOnUse" x="22" y="22" width="40" height="40">
<rect x="22" y="22" width="40" height="40" fill="#31B1A2"/>
</mask>
<g mask="url(#mask0_2063_282)">
<path d="M27 55.3333V33.6667L33.6667 38.6667L42 27L50.3333 33.6667H57V55.3333H27ZM35.4445 51.1389L42.1111 41.9445L54.2222 51.3889V36.4444H49.3611L42.5555 30.9861L34.3055 42.5972L29.7778 39.2222V46.6111L35.4445 51.1389Z" fill="#31B1A2"/>
</g>
<defs>
<filter id="filter0_d_2063_282" x="5" y="5" width="84" height="84" filterUnits="userSpaceOnUse" color-interpolation-filters="sRGB">
<feFlood flood-opacity="0" result="BackgroundImageFix"/>
<feColorMatrix in="SourceAlpha" type="matrix" values="0 0 0 0 0 0 0 0 0 0 0 0 0 0 0 0 0 0 127 0" result="hardAlpha"/>
<feOffset dx="5" dy="5"/>
<feGaussianBlur stdDeviation="5"/>
<feColorMatrix type="matrix" values="0 0 0 0 0.0862745 0 0 0 0 0.360784 0 0 0 0 0.768627 0 0 0 0.161 0"/>
<feBlend mode="normal" in2="BackgroundImageFix" result="effect1_dropShadow_2063_282"/>
<feBlend mode="normal" in="SourceGraphic" in2="effect1_dropShadow_2063_282" result="shape"/>
</filter>
</defs>
</svg>
