<svg width="84" height="84" viewBox="0 0 84 84" fill="none" xmlns="http://www.w3.org/2000/svg">
<g filter="url(#filter0_d_1950_297)">
<path d="M64 5H10C7.23858 5 5 7.23858 5 10V64C5 66.7614 7.23858 69 10 69H64C66.7614 69 69 66.7614 69 64V10C69 7.23858 66.7614 5 64 5Z" fill="white"/>
</g>
<mask id="mask0_1950_297" style="mask-type:alpha" maskUnits="userSpaceOnUse" x="19" y="19" width="36" height="36">
<rect x="19" y="19" width="36" height="36" fill="#8FB93B"/>
</mask>
<g mask="url(#mask0_1950_297)">
<path d="M38.5 41.5V32.5H42.25V29.5H38.5V20.5H49V29.5H45.25V32.5H49V41.5H38.5ZM25 53.5V44.5H28.75V41.5H25V32.5H28.75V29.5H25V20.5H35.5V29.5H31.75V32.5H35.5V41.5H31.75V44.5H35.5V53.5H25Z" fill="#8FB93B"/>
<rect x="32" y="24" width="10" height="2" fill="#8FB93B"/>
</g>
<defs>
<filter id="filter0_d_1950_297" x="0" y="0" width="84" height="84" filterUnits="userSpaceOnUse" color-interpolation-filters="sRGB">
<feFlood flood-opacity="0" result="BackgroundImageFix"/>
<feColorMatrix in="SourceAlpha" type="matrix" values="0 0 0 0 0 0 0 0 0 0 0 0 0 0 0 0 0 0 127 0" result="hardAlpha"/>
<feOffset dx="5" dy="5"/>
<feGaussianBlur stdDeviation="5"/>
<feColorMatrix type="matrix" values="0 0 0 0 0.0862745 0 0 0 0 0.360784 0 0 0 0 0.768627 0 0 0 0.161 0"/>
<feBlend mode="normal" in2="BackgroundImageFix" result="effect1_dropShadow_1950_297"/>
<feBlend mode="normal" in="SourceGraphic" in2="effect1_dropShadow_1950_297" result="shape"/>
</filter>
</defs>
</svg>
