<svg width="84" height="84" viewBox="0 0 84 84" fill="none" xmlns="http://www.w3.org/2000/svg">
<g filter="url(#filter0_d_1950_296)">
<path d="M64 5H10C7.23858 5 5 7.23858 5 10V64C5 66.7614 7.23858 69 10 69H64C66.7614 69 69 66.7614 69 64V10C69 7.23858 66.7614 5 64 5Z" fill="white"/>
</g>
<mask id="mask0_1950_296" style="mask-type:alpha" maskUnits="userSpaceOnUse" x="16" y="16" width="42" height="42">
<rect x="16" y="16" width="42" height="42" fill="#D9D9D9"/>
</mask>
<g mask="url(#mask0_1950_296)">
<path d="M31.75 51L29.3 48.55L32.3625 45.4C28.6292 44.9042 25.5521 43.8833 23.1313 42.3375C20.7104 40.7917 19.5 39.0125 19.5 37C19.5 34.5792 21.1844 32.5156 24.5531 30.8094C27.9219 29.1031 32.0708 28.25 37 28.25C41.9292 28.25 46.0781 29.1031 49.4469 30.8094C52.8156 32.5156 54.5 34.5792 54.5 37C54.5 38.8083 53.5302 40.4271 51.5906 41.8563C49.651 43.2854 47.1208 44.35 44 45.05V41.4625C46.2458 40.8792 47.974 40.1573 49.1844 39.2969C50.3948 38.4365 51 37.6708 51 37C51 36.0667 49.7531 34.9583 47.2594 33.675C44.7656 32.3917 41.3458 31.75 37 31.75C32.6542 31.75 29.2344 32.3917 26.7406 33.675C24.2469 34.9583 23 36.0667 23 37C23 37.7 23.7438 38.5385 25.2313 39.5156C26.7188 40.4927 28.8333 41.2292 31.575 41.725L29.3 39.45L31.75 37L38.75 44L31.75 51Z" fill="#8C67E5"/>
</g>
<defs>
<filter id="filter0_d_1950_296" x="0" y="0" width="84" height="84" filterUnits="userSpaceOnUse" color-interpolation-filters="sRGB">
<feFlood flood-opacity="0" result="BackgroundImageFix"/>
<feColorMatrix in="SourceAlpha" type="matrix" values="0 0 0 0 0 0 0 0 0 0 0 0 0 0 0 0 0 0 127 0" result="hardAlpha"/>
<feOffset dx="5" dy="5"/>
<feGaussianBlur stdDeviation="5"/>
<feColorMatrix type="matrix" values="0 0 0 0 0.0862745 0 0 0 0 0.360784 0 0 0 0 0.768627 0 0 0 0.161 0"/>
<feBlend mode="normal" in2="BackgroundImageFix" result="effect1_dropShadow_1950_296"/>
<feBlend mode="normal" in="SourceGraphic" in2="effect1_dropShadow_1950_296" result="shape"/>
</filter>
</defs>
</svg>
