<svg id="Layer_1" data-name="Layer 1" xmlns="http://www.w3.org/2000/svg" xmlns:xlink="http://www.w3.org/1999/xlink" width="60" height="60" viewBox="0 0 60 60"><defs><linearGradient id="linear-gradient" x1="-37.09" y1="-1963.002" x2="-22.762" y2="-1938.187" gradientTransform="translate(54.402 2477.625) scale(1.255)" gradientUnits="userSpaceOnUse"><stop offset="0" stop-color="#058f92"/><stop offset="0.5" stop-color="#038489"/><stop offset="1" stop-color="#026d71"/></linearGradient></defs><circle cx="30.626" cy="18.729" r="15.028" style="fill:#036c70"/><circle cx="43.149" cy="32.505" r="13.775" style="fill:#1a9ba1"/><circle cx="32.505" cy="45.654" r="10.645" style="fill:#37c6d0"/><path d="M33.131,17.264V43.988A2.306,2.306,0,0,1,31.7,46.105a2.227,2.227,0,0,1-.864.175H21.872c-.012-.213-.012-.413-.012-.626a5.234,5.234,0,0,1,.025-.626,10.612,10.612,0,0,1,6.374-9.13V33.569A15.011,15.011,0,0,1,15.783,16.4c.009-.057.019-.114.028-.17a10.891,10.891,0,0,1,.263-1.253H30.839a2.3,2.3,0,0,1,2.292,2.292Z" style="isolation:isolate;opacity:0.10000000149011612"/><path d="M29.587,16.225H15.811A15.012,15.012,0,0,0,28.09,33.543q.372.063.745.107c-3.882,1.841-6.711,7.07-6.951,11.378a5.234,5.234,0,0,0-.025.626c0,.213,0,.413.012.626a8.362,8.362,0,0,0,.163,1.252h7.551A2.306,2.306,0,0,0,31.7,46.105a2.234,2.234,0,0,0,.175-.864V18.516a2.3,2.3,0,0,0-2.29-2.291Z" style="isolation:isolate;opacity:0.20000000298023224"/><path d="M29.587,16.225H15.811A15.014,15.014,0,0,0,28.092,33.544c.167.028.335.054.5.076-3.757,1.974-6.475,7.19-6.71,11.408h7.7a2.309,2.309,0,0,0,2.291-2.292V18.516a2.3,2.3,0,0,0-2.291-2.291Z" style="isolation:isolate;opacity:0.20000000298023224"/><path d="M28.334,16.225H15.811A15.014,15.014,0,0,0,26.919,33.3a20.7,20.7,0,0,0-5.034,11.732h6.449a2.3,2.3,0,0,0,2.292-2.292V18.516a2.292,2.292,0,0,0-2.292-2.291Z" style="isolation:isolate;opacity:0.20000000298023224"/><path d="M5.371,16.225h22.96a2.3,2.3,0,0,1,2.3,2.295V41.48a2.3,2.3,0,0,1-2.3,2.3H5.371a2.3,2.3,0,0,1-2.3-2.3V18.52A2.3,2.3,0,0,1,5.371,16.225Z" style="fill:url(#linear-gradient)"/><path d="M13.328,29.719a4.233,4.233,0,0,1-1.314-1.388,3.784,3.784,0,0,1-.457-1.9,3.656,3.656,0,0,1,.851-2.461A5.021,5.021,0,0,1,14.669,22.5a9.567,9.567,0,0,1,3.09-.479,11.782,11.782,0,0,1,4.07.57v2.881a6.372,6.372,0,0,0-1.841-.752,8.982,8.982,0,0,0-2.153-.258,4.655,4.655,0,0,0-2.213.469,1.45,1.45,0,0,0-.876,1.33,1.343,1.343,0,0,0,.375.941,3.374,3.374,0,0,0,1,.717q.627.312,1.879.829a2,2,0,0,1,.268.107,15.509,15.509,0,0,1,2.369,1.169,4.232,4.232,0,0,1,1.4,1.41,4.1,4.1,0,0,1,.5,2.129,3.955,3.955,0,0,1-.8,2.562,4.457,4.457,0,0,1-2.128,1.433,9.7,9.7,0,0,1-3.036.441,16.1,16.1,0,0,1-2.755-.226,9.438,9.438,0,0,1-2.233-.656V34.075a7.2,7.2,0,0,0,2.254,1.077,8.819,8.819,0,0,0,2.487.4,4.28,4.28,0,0,0,2.254-.478,1.512,1.512,0,0,0,.769-1.351,1.441,1.441,0,0,0-.425-1.035,4.309,4.309,0,0,0-1.174-.818q-.751-.375-2.213-.99a12.584,12.584,0,0,1-2.215-1.159Z" style="fill:#fff"/></svg>