<svg width="94" height="94" viewBox="0 0 94 94" fill="none" xmlns="http://www.w3.org/2000/svg">
<g filter="url(#filter0_d_2065_362)">
<path d="M69 10H15C12.2386 10 10 12.2386 10 15V69C10 71.7614 12.2386 74 15 74H69C71.7614 74 74 71.7614 74 69V15C74 12.2386 71.7614 10 69 10Z" fill="white"/>
</g>
<mask id="mask0_2065_362" style="mask-type:alpha" maskUnits="userSpaceOnUse" x="22" y="22" width="40" height="40">
<rect x="22" y="22" width="40" height="40" fill="url(#paint0_linear_2065_362)"/>
</mask>
<g mask="url(#mask0_2065_362)">
<path d="M34.457 56.9997C31.9293 56.9997 29.7765 56.1108 27.9987 54.333C26.2209 52.5552 25.332 50.4025 25.332 47.8747C25.332 45.4858 26.1306 43.4233 27.7279 41.6872C29.3251 39.9511 31.3181 38.9858 33.707 38.7913L26.9987 25.333H38.6654L41.9987 31.9997L45.332 25.333H56.9987L50.332 38.708C52.6931 38.9302 54.6723 39.9094 56.2695 41.6455C57.8668 43.3816 58.6654 45.4441 58.6654 47.833C58.6654 50.3886 57.7765 52.5552 55.9987 54.333C54.2209 56.1108 52.0543 56.9997 49.4987 56.9997C49.2487 56.9997 48.9918 56.9927 48.7279 56.9788C48.464 56.965 48.207 56.9302 47.957 56.8747C49.5589 55.9673 50.7719 54.6964 51.5959 53.0622C52.42 51.4279 52.832 49.6849 52.832 47.833C52.832 44.8052 51.7834 42.2427 49.6862 40.1455C47.589 38.0483 45.0265 36.9997 41.9987 36.9997C38.9709 36.9997 36.4084 38.0483 34.3112 40.1455C32.214 42.2427 31.1654 44.8052 31.1654 47.833C31.1654 49.6849 31.5728 51.4256 32.3876 53.0552C33.2024 54.6849 34.4061 55.958 35.9987 56.8747C35.7487 56.9302 35.4918 56.965 35.2279 56.9788C34.964 56.9927 34.707 56.9997 34.457 56.9997ZM42.0052 55.8886C39.7694 55.8886 37.8668 55.106 36.2973 53.5409C34.7278 51.9758 33.9431 50.0754 33.9431 47.8396C33.9431 45.6037 34.7257 43.7011 36.2908 42.1316C37.8559 40.5621 39.7563 39.7774 41.9922 39.7774C44.228 39.7774 46.1306 40.56 47.7001 42.1251C49.2696 43.6902 50.0543 45.5906 50.0543 47.8265C50.0543 50.0623 49.2717 51.965 47.7066 53.5344C46.1415 55.1039 44.2411 55.8886 42.0052 55.8886ZM38.9154 52.4163L41.9987 50.083L45.082 52.4163L43.9154 48.6247L46.9987 46.4163H43.207L41.9987 42.4163L40.7904 46.4163H36.9987L40.082 48.6247L38.9154 52.4163Z" fill="url(#paint1_linear_2065_362)"/>
</g>
<defs>
<filter id="filter0_d_2065_362" x="5" y="5" width="84" height="84" filterUnits="userSpaceOnUse" color-interpolation-filters="sRGB">
<feFlood flood-opacity="0" result="BackgroundImageFix"/>
<feColorMatrix in="SourceAlpha" type="matrix" values="0 0 0 0 0 0 0 0 0 0 0 0 0 0 0 0 0 0 127 0" result="hardAlpha"/>
<feOffset dx="5" dy="5"/>
<feGaussianBlur stdDeviation="5"/>
<feColorMatrix type="matrix" values="0 0 0 0 0.0862745 0 0 0 0 0.360784 0 0 0 0 0.768627 0 0 0 0.161 0"/>
<feBlend mode="normal" in2="BackgroundImageFix" result="effect1_dropShadow_2065_362"/>
<feBlend mode="normal" in="SourceGraphic" in2="effect1_dropShadow_2065_362" result="shape"/>
</filter>
<linearGradient id="paint0_linear_2065_362" x1="42" y1="22" x2="42" y2="62" gradientUnits="userSpaceOnUse">
<stop stop-color="#F29800"/>
<stop offset="1" stop-color="#EBBC26"/>
</linearGradient>
<linearGradient id="paint1_linear_2065_362" x1="41.9987" y1="25.333" x2="41.9987" y2="56.9997" gradientUnits="userSpaceOnUse">
<stop stop-color="#F29800"/>
<stop offset="1" stop-color="#EBBC26"/>
</linearGradient>
</defs>
</svg>
