<svg width="84" height="84" viewBox="0 0 84 84" fill="none" xmlns="http://www.w3.org/2000/svg">
<g filter="url(#filter0_d_1950_298)">
<path d="M64 5H10C7.23858 5 5 7.23858 5 10V64C5 66.7614 7.23858 69 10 69H64C66.7614 69 69 66.7614 69 64V10C69 7.23858 66.7614 5 64 5Z" fill="white"/>
</g>
<mask id="mask0_1950_298" style="mask-type:alpha" maskUnits="userSpaceOnUse" x="17" y="17" width="41" height="41">
<rect x="17" y="17" width="40.7656" height="40.7656" fill="#D9D9D9"/>
</mask>
<g mask="url(#mask0_1950_298)">
<path d="M35.6823 54.3683V45.8755C35.6823 44.2902 35.4417 43.1153 34.9604 42.351C34.4791 41.5866 33.8422 40.8364 33.0495 40.1004L35.47 37.6799C35.8097 37.9913 36.1352 38.3239 36.4466 38.6778C36.7581 39.0317 37.0695 39.4068 37.3809 39.8031C37.7772 39.2652 38.1806 38.791 38.5911 38.3806C39.0016 37.9701 39.4191 37.5667 39.8438 37.1703C40.9195 36.1795 41.8962 35.033 42.7738 33.7307C43.6514 32.4285 44.1185 30.1496 44.1751 26.894L41.4999 29.5692L39.0794 27.1912L45.8737 20.397L52.668 27.1912L50.29 29.5692L47.5723 26.894C47.5156 30.9422 46.8928 33.8227 45.7038 35.5355C44.5148 37.2482 43.3258 38.6424 42.1368 39.7182C41.2309 40.5392 40.4949 41.3389 39.9287 42.1174C39.3625 42.8959 39.0794 44.1486 39.0794 45.8755V54.3683H35.6823ZM27.5292 30.8856C27.4159 30.3194 27.3381 29.6966 27.2956 29.0172C27.2531 28.3378 27.2178 27.63 27.1895 26.894L24.4717 29.5692L22.0938 27.1912L28.888 20.397L35.6823 27.1912L33.2618 29.5692L30.5866 26.9365C30.5866 27.531 30.6149 28.0901 30.6715 28.6138C30.7281 29.1375 30.7848 29.6259 30.8414 30.0788L27.5292 30.8856ZM31.1811 38.3593C30.6149 37.7648 30.0699 37.0712 29.5462 36.2786C29.0225 35.4859 28.5625 34.5092 28.1661 33.3486L31.4359 32.5417C31.719 33.3061 32.0445 33.9572 32.4125 34.4951C32.7806 35.033 33.1769 35.5142 33.6015 35.9389L31.1811 38.3593Z" fill="#FF6A6A"/>
</g>
<defs>
<filter id="filter0_d_1950_298" x="0" y="0" width="84" height="84" filterUnits="userSpaceOnUse" color-interpolation-filters="sRGB">
<feFlood flood-opacity="0" result="BackgroundImageFix"/>
<feColorMatrix in="SourceAlpha" type="matrix" values="0 0 0 0 0 0 0 0 0 0 0 0 0 0 0 0 0 0 127 0" result="hardAlpha"/>
<feOffset dx="5" dy="5"/>
<feGaussianBlur stdDeviation="5"/>
<feColorMatrix type="matrix" values="0 0 0 0 0.0862745 0 0 0 0 0.360784 0 0 0 0 0.768627 0 0 0 0.161 0"/>
<feBlend mode="normal" in2="BackgroundImageFix" result="effect1_dropShadow_1950_298"/>
<feBlend mode="normal" in="SourceGraphic" in2="effect1_dropShadow_1950_298" result="shape"/>
</filter>
</defs>
</svg>
