<svg width="84" height="84" viewBox="0 0 84 84" fill="none" xmlns="http://www.w3.org/2000/svg">
<g filter="url(#filter0_d_1950_299)">
<path d="M64 5H10C7.23858 5 5 7.23858 5 10V64C5 66.7614 7.23858 69 10 69H64C66.7614 69 69 66.7614 69 64V10C69 7.23858 66.7614 5 64 5Z" fill="white"/>
</g>
<mask id="mask0_1950_299" style="mask-type:alpha" maskUnits="userSpaceOnUse" x="15" y="15" width="44" height="44">
<rect x="15" y="15" width="44" height="44" fill="#D9D9D9"/>
</mask>
<g mask="url(#mask0_1950_299)">
<path d="M41.5826 57.1665C40.8187 57.1665 40.1694 56.8991 39.6346 56.3644C39.0999 55.8297 38.8326 55.1804 38.8326 54.4165V41.5832C38.8326 40.8193 39.0999 40.17 39.6346 39.6353C40.1694 39.1005 40.8187 38.8332 41.5826 38.8332H54.4159C55.1798 38.8332 55.8291 39.1005 56.3638 39.6353C56.8985 40.17 57.1659 40.8193 57.1659 41.5832V54.4165C57.1659 55.1804 56.8985 55.8297 56.3638 56.3644C55.8291 56.8991 55.1798 57.1665 54.4159 57.1665H41.5826ZM41.5826 54.4165H54.4159V52.9498C53.652 52.0026 52.7201 51.2464 51.6201 50.6811C50.5201 50.1158 49.3131 49.8332 47.9992 49.8332C46.6853 49.8332 45.4784 50.1158 44.3784 50.6811C43.2784 51.2464 42.3464 52.0026 41.5826 52.9498V54.4165ZM47.9992 47.9998C48.7631 47.9998 49.4124 47.7325 49.9471 47.1978C50.4819 46.663 50.7492 46.0137 50.7492 45.2498C50.7492 44.4859 50.4819 43.8366 49.9471 43.3019C49.4124 42.7672 48.7631 42.4998 47.9992 42.4998C47.2353 42.4998 46.586 42.7672 46.0513 43.3019C45.5166 43.8366 45.2492 44.4859 45.2492 45.2498C45.2492 46.0137 45.5166 46.663 46.0513 47.1978C46.586 47.7325 47.2353 47.9998 47.9992 47.9998ZM31.9576 55.3332L31.2242 49.4665C30.827 49.3137 30.4527 49.1304 30.1013 48.9165C29.7499 48.7026 29.4062 48.4734 29.0701 48.229L23.6159 50.5207L18.5742 41.8123L23.2951 38.2373C23.2645 38.0234 23.2492 37.8172 23.2492 37.6186V36.3811C23.2492 36.1825 23.2645 35.9762 23.2951 35.7623L18.5742 32.1873L23.6159 23.479L29.0701 25.7707C29.4062 25.5262 29.7576 25.2971 30.1242 25.0832C30.4909 24.8693 30.8576 24.6859 31.2242 24.5332L31.9576 18.6665H42.0409L42.7742 24.5332C43.1714 24.6859 43.5457 24.8693 43.8971 25.0832C44.2485 25.2971 44.5923 25.5262 44.9284 25.7707L50.3826 23.479L55.4242 32.1873L51.5284 35.1665H43.2326C42.8048 33.8526 42.0409 32.7603 40.9409 31.8894C39.8409 31.0186 38.5576 30.5832 37.0909 30.5832C35.3187 30.5832 33.8062 31.2096 32.5534 32.4623C31.3006 33.7151 30.6742 35.2276 30.6742 36.9998C30.6742 38.4665 31.0867 39.7498 31.9117 40.8498C32.7367 41.9498 33.8214 42.7137 35.1659 43.1415V55.3332H31.9576Z" fill="#F4A74D"/>
</g>
<defs>
<filter id="filter0_d_1950_299" x="0" y="0" width="84" height="84" filterUnits="userSpaceOnUse" color-interpolation-filters="sRGB">
<feFlood flood-opacity="0" result="BackgroundImageFix"/>
<feColorMatrix in="SourceAlpha" type="matrix" values="0 0 0 0 0 0 0 0 0 0 0 0 0 0 0 0 0 0 127 0" result="hardAlpha"/>
<feOffset dx="5" dy="5"/>
<feGaussianBlur stdDeviation="5"/>
<feColorMatrix type="matrix" values="0 0 0 0 0.0862745 0 0 0 0 0.360784 0 0 0 0 0.768627 0 0 0 0.161 0"/>
<feBlend mode="normal" in2="BackgroundImageFix" result="effect1_dropShadow_1950_299"/>
<feBlend mode="normal" in="SourceGraphic" in2="effect1_dropShadow_1950_299" result="shape"/>
</filter>
</defs>
</svg>
