<svg width="94" height="94" viewBox="0 0 94 94" fill="none" xmlns="http://www.w3.org/2000/svg">
<g filter="url(#filter0_d_2065_375)">
<path d="M69 10H15C12.2386 10 10 12.2386 10 15V69C10 71.7614 12.2386 74 15 74H69C71.7614 74 74 71.7614 74 69V15C74 12.2386 71.7614 10 69 10Z" fill="white"/>
</g>
<mask id="mask0_2065_375" style="mask-type:alpha" maskUnits="userSpaceOnUse" x="22" y="22" width="40" height="40">
<rect x="22" y="22" width="40" height="40" fill="url(#paint0_linear_2065_375)"/>
</mask>
<g mask="url(#mask0_2065_375)">
<path d="M40.2513 43.833L48.3346 35.7497L46.3485 33.7636L40.2513 39.8608L37.668 37.2775L35.6818 39.2636L40.2513 43.833ZM42.0013 58.6663C37.5291 54.8608 34.1888 51.3261 31.9805 48.0622C29.7721 44.7983 28.668 41.7775 28.668 38.9997C28.668 34.833 30.0082 31.5136 32.6888 29.0413C35.3694 26.5691 38.4735 25.333 42.0013 25.333C45.5291 25.333 48.6332 26.5691 51.3138 29.0413C53.9944 31.5136 55.3346 34.833 55.3346 38.9997C55.3346 41.7775 54.2305 44.7983 52.0221 48.0622C49.8138 51.3261 46.4735 54.8608 42.0013 58.6663Z" fill="url(#paint1_linear_2065_375)"/>
</g>
<defs>
<filter id="filter0_d_2065_375" x="5" y="5" width="84" height="84" filterUnits="userSpaceOnUse" color-interpolation-filters="sRGB">
<feFlood flood-opacity="0" result="BackgroundImageFix"/>
<feColorMatrix in="SourceAlpha" type="matrix" values="0 0 0 0 0 0 0 0 0 0 0 0 0 0 0 0 0 0 127 0" result="hardAlpha"/>
<feOffset dx="5" dy="5"/>
<feGaussianBlur stdDeviation="5"/>
<feColorMatrix type="matrix" values="0 0 0 0 0.0862745 0 0 0 0 0.360784 0 0 0 0 0.768627 0 0 0 0.161 0"/>
<feBlend mode="normal" in2="BackgroundImageFix" result="effect1_dropShadow_2065_375"/>
<feBlend mode="normal" in="SourceGraphic" in2="effect1_dropShadow_2065_375" result="shape"/>
</filter>
<linearGradient id="paint0_linear_2065_375" x1="42" y1="22" x2="42" y2="62" gradientUnits="userSpaceOnUse">
<stop stop-color="#D83B01"/>
<stop offset="1" stop-color="#F9A36D"/>
</linearGradient>
<linearGradient id="paint1_linear_2065_375" x1="42.0013" y1="25.333" x2="42.0013" y2="58.6663" gradientUnits="userSpaceOnUse">
<stop stop-color="#D83B01"/>
<stop offset="1" stop-color="#F9A36D"/>
</linearGradient>
</defs>
</svg>
