<svg width="94" height="94" viewBox="0 0 94 94" fill="none" xmlns="http://www.w3.org/2000/svg">
<g filter="url(#filter0_d_2063_302)">
<path d="M69 10H15C12.2386 10 10 12.2386 10 15V69C10 71.7614 12.2386 74 15 74H69C71.7614 74 74 71.7614 74 69V15C74 12.2386 71.7614 10 69 10Z" fill="white"/>
</g>
<mask id="mask0_2063_302" style="mask-type:alpha" maskUnits="userSpaceOnUse" x="22" y="22" width="40" height="40">
<rect x="22" y="22" width="40" height="40" fill="#D9D9D9"/>
</mask>
<g mask="url(#mask0_2063_302)">
<path d="M23.6094 55.3332V51.1665C23.6094 50.2036 23.8571 49.3263 24.3524 48.5346C24.8478 47.743 25.526 47.148 26.3871 46.7499C28.3131 45.8703 30.114 45.2291 31.7899 44.8263C33.4658 44.4235 35.1834 44.2221 36.9427 44.2221C38.702 44.2221 40.4149 44.4235 42.0816 44.8263C43.7483 45.2291 45.5445 45.8703 47.4705 46.7499C48.3316 47.148 49.0144 47.743 49.5191 48.5346C50.0237 49.3263 50.276 50.2036 50.276 51.1665V55.3332H23.6094ZM53.0538 55.3332V51.0555C53.0538 49.4814 52.6441 48.1318 51.8246 47.0068C51.0052 45.8818 49.9056 44.9536 48.526 44.2221C50.276 44.4258 51.9242 44.7383 53.4705 45.1596C55.0168 45.5809 56.3223 46.074 57.3871 46.6388C58.3316 47.1758 59.0677 47.817 59.5955 48.5624C60.1232 49.3078 60.3871 50.1388 60.3871 51.0555V55.3332H53.0538ZM36.9427 41.9721C35.1094 41.9721 33.5862 41.3656 32.3733 40.1527C31.1603 38.9397 30.5538 37.4165 30.5538 35.5832C30.5538 33.7499 31.1603 32.2267 32.3733 31.0138C33.5862 29.8008 35.1094 29.1943 36.9427 29.1943C38.776 29.1943 40.2992 29.8008 41.5121 31.0138C42.7251 32.2267 43.3316 33.7499 43.3316 35.5832C43.3316 37.4165 42.7251 38.9397 41.5121 40.1527C40.2992 41.3656 38.776 41.9721 36.9427 41.9721ZM52.4982 35.5832C52.4982 37.4165 51.8917 38.9397 50.6788 40.1527C49.4658 41.3656 47.9427 41.9721 46.1093 41.9721C45.8038 41.9721 45.4473 41.9466 45.0399 41.8957C44.6325 41.8448 44.276 41.7684 43.9705 41.6665C44.6649 40.9073 45.195 40.0091 45.5607 38.9721C45.9265 37.9351 46.1093 36.8054 46.1093 35.5832C46.1093 34.361 45.9265 33.2499 45.5607 32.2499C45.195 31.2499 44.6649 30.3332 43.9705 29.4999C44.3038 29.398 44.6603 29.3217 45.0399 29.2707C45.4195 29.2198 45.776 29.1943 46.1093 29.1943C47.9427 29.1943 49.4658 29.8008 50.6788 31.0138C51.8917 32.2267 52.4982 33.7499 52.4982 35.5832ZM26.3871 52.5555H47.4983V51.1665C47.4983 50.7684 47.3848 50.3888 47.158 50.0277C46.9311 49.6666 46.6464 49.4073 46.3038 49.2499C44.4705 48.4073 42.8455 47.8216 41.4288 47.4929C40.0121 47.1642 38.5168 46.9999 36.9427 46.9999C35.3686 46.9999 33.8686 47.1642 32.4427 47.4929C31.0168 47.8216 29.3871 48.4073 27.5538 49.2499C27.2112 49.4073 26.9311 49.6666 26.7135 50.0277C26.4959 50.3888 26.3871 50.7684 26.3871 51.1665V52.5555ZM36.9427 39.1943C37.9705 39.1943 38.8293 38.8494 39.5191 38.1596C40.2089 37.4698 40.5538 36.611 40.5538 35.5832C40.5538 34.5554 40.2089 33.6966 39.5191 33.0068C38.8293 32.317 37.9705 31.9721 36.9427 31.9721C35.9149 31.9721 35.0561 32.317 34.3663 33.0068C33.6765 33.6966 33.3316 34.5554 33.3316 35.5832C33.3316 36.611 33.6765 37.4698 34.3663 38.1596C35.0561 38.8494 35.9149 39.1943 36.9427 39.1943Z" fill="#DD4910"/>
</g>
<defs>
<filter id="filter0_d_2063_302" x="5" y="5" width="84" height="84" filterUnits="userSpaceOnUse" color-interpolation-filters="sRGB">
<feFlood flood-opacity="0" result="BackgroundImageFix"/>
<feColorMatrix in="SourceAlpha" type="matrix" values="0 0 0 0 0 0 0 0 0 0 0 0 0 0 0 0 0 0 127 0" result="hardAlpha"/>
<feOffset dx="5" dy="5"/>
<feGaussianBlur stdDeviation="5"/>
<feColorMatrix type="matrix" values="0 0 0 0 0.0862745 0 0 0 0 0.360784 0 0 0 0 0.768627 0 0 0 0.161 0"/>
<feBlend mode="normal" in2="BackgroundImageFix" result="effect1_dropShadow_2063_302"/>
<feBlend mode="normal" in="SourceGraphic" in2="effect1_dropShadow_2063_302" result="shape"/>
</filter>
</defs>
</svg>
