<svg width="94" height="94" viewBox="0 0 94 94" fill="none" xmlns="http://www.w3.org/2000/svg">
<g filter="url(#filter0_d_2063_292)">
<path d="M69 10H15C12.2386 10 10 12.2386 10 15V69C10 71.7614 12.2386 74 15 74H69C71.7614 74 74 71.7614 74 69V15C74 12.2386 71.7614 10 69 10Z" fill="white"/>
</g>
<mask id="mask0_2063_292" style="mask-type:alpha" maskUnits="userSpaceOnUse" x="22" y="22" width="40" height="40">
<rect x="22" y="22" width="40" height="40" fill="#2F7EF0"/>
</mask>
<g mask="url(#mask0_2063_292)">
<path d="M33.668 55.3332V52.5554H50.3346V55.3332H33.668ZM40.6124 48.3887V33.9581L35.8068 38.7498L33.8624 36.8054L42.0013 28.6665L50.1402 36.8054L48.1958 38.7498L43.3902 33.9581V48.3887H40.6124Z" fill="#2F7EF0"/>
</g>
<defs>
<filter id="filter0_d_2063_292" x="5" y="5" width="84" height="84" filterUnits="userSpaceOnUse" color-interpolation-filters="sRGB">
<feFlood flood-opacity="0" result="BackgroundImageFix"/>
<feColorMatrix in="SourceAlpha" type="matrix" values="0 0 0 0 0 0 0 0 0 0 0 0 0 0 0 0 0 0 127 0" result="hardAlpha"/>
<feOffset dx="5" dy="5"/>
<feGaussianBlur stdDeviation="5"/>
<feColorMatrix type="matrix" values="0 0 0 0 0.0862745 0 0 0 0 0.360784 0 0 0 0 0.768627 0 0 0 0.161 0"/>
<feBlend mode="normal" in2="BackgroundImageFix" result="effect1_dropShadow_2063_292"/>
<feBlend mode="normal" in="SourceGraphic" in2="effect1_dropShadow_2063_292" result="shape"/>
</filter>
</defs>
</svg>
