<svg width="94" height="94" viewBox="0 0 94 94" fill="none" xmlns="http://www.w3.org/2000/svg">
<g filter="url(#filter0_d_2063_263)">
<path d="M69 10H15C12.2386 10 10 12.2386 10 15V69C10 71.7614 12.2386 74 15 74H69C71.7614 74 74 71.7614 74 69V15C74 12.2386 71.7614 10 69 10Z" fill="white"/>
</g>
<mask id="mask0_2063_263" style="mask-type:alpha" maskUnits="userSpaceOnUse" x="22" y="22" width="40" height="40">
<rect x="22" y="22" width="40" height="40" fill="#D9D9D9"/>
</mask>
<g mask="url(#mask0_2063_263)">
<path d="M40.332 57V54.2222H54.221V41.8333C54.221 38.4595 53.0351 35.5976 50.6634 33.2474C48.2917 30.8973 45.4035 29.7222 41.9987 29.7222C38.5939 29.7222 35.7057 30.8973 33.334 33.2474C30.9623 35.5976 29.7764 38.4595 29.7764 41.8333V52H28.6654C27.7487 52 26.964 51.6736 26.3112 51.0208C25.6584 50.3681 25.332 49.5833 25.332 48.6667V45.3333C25.332 44.75 25.4779 44.2014 25.7695 43.6875C26.0612 43.1736 26.4709 42.7639 26.9987 42.4583L27.1237 40.25C27.3459 38.3611 27.8945 36.6111 28.7695 35C29.6445 33.3889 30.7418 31.9861 32.0612 30.7917C33.3806 29.5972 34.8945 28.6667 36.6029 28C38.3112 27.3333 40.1098 27 41.9987 27C43.8876 27 45.6793 27.3333 47.3737 28C49.0681 28.6667 50.582 29.5903 51.9154 30.7708C53.2487 31.9514 54.3459 33.3472 55.207 34.9583C56.0681 36.5694 56.6237 38.3194 56.8737 40.2083L56.9987 42.375C57.5265 42.625 57.9362 43 58.2279 43.5C58.5195 44 58.6654 44.5278 58.6654 45.0833V48.9167C58.6654 49.4722 58.5195 50 58.2279 50.5C57.9362 51 57.5265 51.375 56.9987 51.625V54.2222C56.9987 54.9861 56.7267 55.6401 56.1827 56.184C55.6388 56.728 54.9848 57 54.221 57H40.332ZM36.9938 45.0555C36.5989 45.0555 36.2695 44.922 36.0057 44.6548C35.7418 44.3877 35.6098 44.0567 35.6098 43.6618C35.6098 43.2669 35.7434 42.9375 36.0105 42.6736C36.2777 42.4097 36.6087 42.2778 37.0036 42.2778C37.3985 42.2778 37.7279 42.4114 37.9917 42.6785C38.2556 42.9456 38.3876 43.2767 38.3876 43.6715C38.3876 44.0664 38.254 44.3958 37.9869 44.6597C37.7197 44.9236 37.3887 45.0555 36.9938 45.0555ZM46.9938 45.0555C46.5989 45.0555 46.2695 44.922 46.0057 44.6548C45.7418 44.3877 45.6098 44.0567 45.6098 43.6618C45.6098 43.2669 45.7434 42.9375 46.0105 42.6736C46.2777 42.4097 46.6087 42.2778 47.0036 42.2778C47.3985 42.2778 47.7279 42.4114 47.9917 42.6785C48.2556 42.9456 48.3876 43.2767 48.3876 43.6715C48.3876 44.0664 48.254 44.3958 47.9869 44.6597C47.7197 44.9236 47.3887 45.0555 46.9938 45.0555ZM32.0404 42.75C31.8459 39.8056 32.7348 37.2778 34.707 35.1667C36.6793 33.0556 39.1376 32 42.082 32C44.5172 32 46.6399 32.794 48.4501 34.382C50.2603 35.9699 51.3598 37.9676 51.7487 40.375C49.258 40.3472 46.9779 39.6574 44.9084 38.3055C42.839 36.9537 41.2415 35.1574 40.1159 32.9167C39.6767 35.1389 38.7418 37.1181 37.3112 38.8542C35.8806 40.5903 34.1237 41.8889 32.0404 42.75Z" fill="#0078D4"/>
</g>
<defs>
<filter id="filter0_d_2063_263" x="5" y="5" width="84" height="84" filterUnits="userSpaceOnUse" color-interpolation-filters="sRGB">
<feFlood flood-opacity="0" result="BackgroundImageFix"/>
<feColorMatrix in="SourceAlpha" type="matrix" values="0 0 0 0 0 0 0 0 0 0 0 0 0 0 0 0 0 0 127 0" result="hardAlpha"/>
<feOffset dx="5" dy="5"/>
<feGaussianBlur stdDeviation="5"/>
<feColorMatrix type="matrix" values="0 0 0 0 0.0862745 0 0 0 0 0.360784 0 0 0 0 0.768627 0 0 0 0.161 0"/>
<feBlend mode="normal" in2="BackgroundImageFix" result="effect1_dropShadow_2063_263"/>
<feBlend mode="normal" in="SourceGraphic" in2="effect1_dropShadow_2063_263" result="shape"/>
</filter>
</defs>
</svg>
