<svg width="94" height="94" viewBox="0 0 94 94" fill="none" xmlns="http://www.w3.org/2000/svg">
<g filter="url(#filter0_d_2063_282)">
<path d="M69 10H15C12.2386 10 10 12.2386 10 15V69C10 71.7614 12.2386 74 15 74H69C71.7614 74 74 71.7614 74 69V15C74 12.2386 71.7614 10 69 10Z" fill="white"/>
</g>
<mask id="mask0_2063_282" style="mask-type:alpha" maskUnits="userSpaceOnUse" x="22" y="22" width="40" height="40">
<rect x="22" y="22" width="40" height="40" fill="#D9D9D9"/>
</mask>
<g mask="url(#mask0_2063_282)">
<path d="M43.6654 45.6112L45.6098 43.6668L41.7209 39.778V32.278H38.9432V40.889L43.6654 45.6112ZM37.1932 52.153C37.545 50.6715 38.3066 49.4423 39.4779 48.4655C40.6492 47.4886 42.0172 47.0002 43.582 47.0002H50.582C51.2117 46.0372 51.6978 44.9962 52.0404 43.8772C52.383 42.7581 52.5543 41.5769 52.5543 40.3335C52.5543 36.9287 51.3684 34.0405 48.9967 31.6688C46.625 29.2971 43.7368 28.1112 40.332 28.1112C36.9273 28.1112 34.039 29.2971 31.6673 31.6688C29.2956 34.0405 28.1098 36.9287 28.1098 40.3335C28.1098 43.1854 28.9639 45.6923 30.6723 47.8543C32.3806 50.0164 34.5542 51.4493 37.1932 52.153ZM43.6654 60.3335C42.0543 60.3335 40.6376 59.8266 39.4154 58.8127C38.1931 57.7988 37.4293 56.5279 37.1237 55.0002C33.7348 54.2779 30.9223 52.5557 28.6862 49.8335C26.4501 47.1113 25.332 43.9446 25.332 40.3335C25.332 36.1668 26.7904 32.6252 29.707 29.7085C32.6237 26.7918 36.1654 25.3335 40.332 25.3335C44.4987 25.3335 48.0404 26.7918 50.957 29.7085C53.8737 32.6252 55.332 36.1668 55.332 40.3335C55.332 41.5279 55.2001 42.6877 54.9362 43.8127C54.6723 44.9377 54.2904 46.0002 53.7904 47.0002C55.6237 47.0002 57.1723 47.6529 58.4362 48.9585C59.7001 50.2641 60.332 51.8335 60.332 53.6668C60.332 55.5002 59.6793 57.0696 58.3737 58.3752C57.0681 59.6807 55.4987 60.3335 53.6654 60.3335H43.6654ZM43.6654 57.5557H53.6654C54.7487 57.5557 55.6677 57.1784 56.4223 56.4238C57.177 55.6691 57.5543 54.7502 57.5543 53.6668C57.5543 52.5835 57.177 51.6645 56.4223 50.9099C55.6677 50.1552 54.7487 49.7779 53.6654 49.7779H43.6654C42.582 49.7779 41.663 50.1552 40.9084 50.9099C40.1538 51.6645 39.7764 52.5835 39.7764 53.6668C39.7764 54.7502 40.1538 55.6691 40.9084 56.4238C41.663 57.1784 42.582 57.5557 43.6654 57.5557ZM43.6605 55.0557C43.2656 55.0557 42.9362 54.9221 42.6723 54.655C42.4084 54.3879 42.2765 54.0568 42.2765 53.662C42.2765 53.2671 42.4101 52.9377 42.6772 52.6738C42.9443 52.4099 43.2754 52.278 43.6702 52.278C44.0651 52.278 44.3945 52.4115 44.6584 52.6787C44.9223 52.9458 45.0542 53.2768 45.0542 53.6717C45.0542 54.0666 44.9207 54.396 44.6535 54.6599C44.3864 54.9238 44.0554 55.0557 43.6605 55.0557ZM48.6605 55.0557C48.2656 55.0557 47.9362 54.9221 47.6723 54.655C47.4084 54.3879 47.2765 54.0568 47.2765 53.662C47.2765 53.2671 47.4101 52.9377 47.6772 52.6738C47.9443 52.4099 48.2754 52.278 48.6702 52.278C49.0651 52.278 49.3945 52.4115 49.6584 52.6787C49.9223 52.9458 50.0542 53.2768 50.0542 53.6717C50.0542 54.0666 49.9207 54.396 49.6535 54.6599C49.3864 54.9238 49.0554 55.0557 48.6605 55.0557ZM53.6605 55.0557C53.2656 55.0557 52.9362 54.9221 52.6723 54.655C52.4084 54.3879 52.2765 54.0568 52.2765 53.662C52.2765 53.2671 52.4101 52.9377 52.6772 52.6738C52.9443 52.4099 53.2754 52.278 53.6702 52.278C54.0651 52.278 54.3945 52.4115 54.6584 52.6787C54.9223 52.9458 55.0542 53.2768 55.0542 53.6717C55.0542 54.0666 54.9207 54.396 54.6535 54.6599C54.3864 54.9238 54.0554 55.0557 53.6605 55.0557Z" fill="#31B1A2"/>
</g>
<defs>
<filter id="filter0_d_2063_282" x="5" y="5" width="84" height="84" filterUnits="userSpaceOnUse" color-interpolation-filters="sRGB">
<feFlood flood-opacity="0" result="BackgroundImageFix"/>
<feColorMatrix in="SourceAlpha" type="matrix" values="0 0 0 0 0 0 0 0 0 0 0 0 0 0 0 0 0 0 127 0" result="hardAlpha"/>
<feOffset dx="5" dy="5"/>
<feGaussianBlur stdDeviation="5"/>
<feColorMatrix type="matrix" values="0 0 0 0 0.0862745 0 0 0 0 0.360784 0 0 0 0 0.768627 0 0 0 0.161 0"/>
<feBlend mode="normal" in2="BackgroundImageFix" result="effect1_dropShadow_2063_282"/>
<feBlend mode="normal" in="SourceGraphic" in2="effect1_dropShadow_2063_282" result="shape"/>
</filter>
</defs>
</svg>
