<svg width="84" height="84" viewBox="0 0 84 84" fill="none" xmlns="http://www.w3.org/2000/svg">
<g filter="url(#filter0_d_1950_296)">
<path d="M64 5H10C7.23858 5 5 7.23858 5 10V64C5 66.7614 7.23858 69 10 69H64C66.7614 69 69 66.7614 69 64V10C69 7.23858 66.7614 5 64 5Z" fill="white"/>
</g>
<mask id="mask0_1950_296" style="mask-type:alpha" maskUnits="userSpaceOnUse" x="16" y="16" width="42" height="42">
<rect x="16" y="16" width="42" height="42" fill="#8C67E5"/>
</mask>
<g mask="url(#mask0_1950_296)">
<path d="M24.75 52.75C23.7875 52.75 22.9635 52.4073 22.2781 51.7219C21.5927 51.0365 21.25 50.2125 21.25 49.25V24.75C21.25 23.7875 21.5927 22.9635 22.2781 22.2781C22.9635 21.5927 23.7875 21.25 24.75 21.25H49.25C50.2125 21.25 51.0365 21.5927 51.7219 22.2781C52.4073 22.9635 52.75 23.7875 52.75 24.75V49.25C52.75 50.2125 52.4073 51.0365 51.7219 51.7219C51.0365 52.4073 50.2125 52.75 49.25 52.75H24.75ZM28.25 45.75H37V42.25H28.25V45.75ZM30 38.75L37 35.25L44 38.75V24.75H30V38.75Z" fill="#8C67E5"/>
</g>
<defs>
<filter id="filter0_d_1950_296" x="0" y="0" width="84" height="84" filterUnits="userSpaceOnUse" color-interpolation-filters="sRGB">
<feFlood flood-opacity="0" result="BackgroundImageFix"/>
<feColorMatrix in="SourceAlpha" type="matrix" values="0 0 0 0 0 0 0 0 0 0 0 0 0 0 0 0 0 0 127 0" result="hardAlpha"/>
<feOffset dx="5" dy="5"/>
<feGaussianBlur stdDeviation="5"/>
<feColorMatrix type="matrix" values="0 0 0 0 0.0862745 0 0 0 0 0.360784 0 0 0 0 0.768627 0 0 0 0.161 0"/>
<feBlend mode="normal" in2="BackgroundImageFix" result="effect1_dropShadow_1950_296"/>
<feBlend mode="normal" in="SourceGraphic" in2="effect1_dropShadow_1950_296" result="shape"/>
</filter>
</defs>
</svg>
