<svg width="94" height="94" viewBox="0 0 94 94" fill="none" xmlns="http://www.w3.org/2000/svg">
<g filter="url(#filter0_d_2063_302)">
<path d="M69 10H15C12.2386 10 10 12.2386 10 15V69C10 71.7614 12.2386 74 15 74H69C71.7614 74 74 71.7614 74 69V15C74 12.2386 71.7614 10 69 10Z" fill="white"/>
</g>
<mask id="mask0_2063_302" style="mask-type:alpha" maskUnits="userSpaceOnUse" x="22" y="22" width="40" height="40">
<rect x="22" y="22" width="40" height="40" fill="#E35E25"/>
</mask>
<g mask="url(#mask0_2063_302)">
<path d="M44.5542 33.1112V30.3335H58.6654V33.1112H44.5542ZM44.5542 39.7779V37.0002H58.6654V39.7779H44.5542ZM44.5542 46.4446V43.6668H58.6654V46.4446H44.5542ZM35.332 45.2502C33.9246 45.2502 32.7487 44.7779 31.8042 43.8335C30.8598 42.8891 30.3876 41.7131 30.3876 40.3057C30.3876 38.8983 30.8598 37.7224 31.8042 36.778C32.7487 35.8335 33.9246 35.3613 35.332 35.3613C36.7394 35.3613 37.9154 35.8335 38.8598 36.778C39.8043 37.7224 40.2765 38.8983 40.2765 40.3057C40.2765 41.7131 39.8043 42.8891 38.8598 43.8335C37.9154 44.7779 36.7394 45.2502 35.332 45.2502ZM25.332 55.3335V52.4446C25.332 51.9008 25.4617 51.383 25.7209 50.891C25.9802 50.399 26.332 50.0372 26.7765 49.8057C28.0265 48.9631 29.3807 48.3358 30.839 47.9238C32.2973 47.5118 33.795 47.3057 35.332 47.3057C36.8691 47.3057 38.3621 47.5256 39.8112 47.9655C41.2603 48.4053 42.6191 49.0187 43.8876 49.8057C44.3135 50.0928 44.6607 50.4678 44.9292 50.9307C45.1978 51.3937 45.332 51.8983 45.332 52.4446V55.3335H25.332ZM28.0542 52.2502V52.5557H42.6098V52.2502C41.5635 51.5835 40.3876 51.0557 39.082 50.6668C37.7765 50.2779 36.5265 50.0835 35.332 50.0835C34.1376 50.0835 32.8829 50.2779 31.5681 50.6668C30.2533 51.0557 29.082 51.5835 28.0542 52.2502ZM35.332 42.4724C35.9709 42.4724 36.4918 42.271 36.8945 41.8682C37.2973 41.4654 37.4987 40.9446 37.4987 40.3057C37.4987 39.6668 37.2973 39.146 36.8945 38.7432C36.4918 38.3404 35.9709 38.139 35.332 38.139C34.6931 38.139 34.1723 38.3404 33.7695 38.7432C33.3668 39.146 33.1654 39.6668 33.1654 40.3057C33.1654 40.9446 33.3668 41.4654 33.7695 41.8682C34.1723 42.271 34.6931 42.4724 35.332 42.4724Z" fill="#E35E25"/>
</g>
<defs>
<filter id="filter0_d_2063_302" x="5" y="5" width="84" height="84" filterUnits="userSpaceOnUse" color-interpolation-filters="sRGB">
<feFlood flood-opacity="0" result="BackgroundImageFix"/>
<feColorMatrix in="SourceAlpha" type="matrix" values="0 0 0 0 0 0 0 0 0 0 0 0 0 0 0 0 0 0 127 0" result="hardAlpha"/>
<feOffset dx="5" dy="5"/>
<feGaussianBlur stdDeviation="5"/>
<feColorMatrix type="matrix" values="0 0 0 0 0.0862745 0 0 0 0 0.360784 0 0 0 0 0.768627 0 0 0 0.161 0"/>
<feBlend mode="normal" in2="BackgroundImageFix" result="effect1_dropShadow_2063_302"/>
<feBlend mode="normal" in="SourceGraphic" in2="effect1_dropShadow_2063_302" result="shape"/>
</filter>
</defs>
</svg>
