<svg width="94" height="94" viewBox="0 0 94 94" fill="none" xmlns="http://www.w3.org/2000/svg">
<g filter="url(#filter0_d_2065_370)">
<path d="M69 10H15C12.2386 10 10 12.2386 10 15V69C10 71.7614 12.2386 74 15 74H69C71.7614 74 74 71.7614 74 69V15C74 12.2386 71.7614 10 69 10Z" fill="white"/>
</g>
<mask id="mask0_2065_370" style="mask-type:alpha" maskUnits="userSpaceOnUse" x="22" y="22" width="40" height="40">
<rect x="22" y="22" width="40" height="40" fill="url(#paint0_linear_2065_370)"/>
</mask>
<g mask="url(#mask0_2065_370)">
<path d="M36.3902 59.5L33.2235 54.1111L27.0291 52.8055L27.6958 46.6667L23.668 42L27.6958 37.3611L27.0291 31.2222L33.2235 29.9167L36.3902 24.5L42.0013 27.0278L47.6124 24.5L50.8068 29.9167L56.9735 31.2222L56.3068 37.3611L60.3346 42L56.3068 46.6667L56.9735 52.8055L50.8068 54.1111L47.6124 59.5L42.0013 56.9722L36.3902 59.5ZM40.2235 47.6667L49.668 38.2778L47.6402 36.3333L40.2235 43.6945L36.3902 39.7778L34.3346 41.8055L40.2235 47.6667Z" fill="url(#paint1_linear_2065_370)"/>
</g>
<defs>
<filter id="filter0_d_2065_370" x="5" y="5" width="84" height="84" filterUnits="userSpaceOnUse" color-interpolation-filters="sRGB">
<feFlood flood-opacity="0" result="BackgroundImageFix"/>
<feColorMatrix in="SourceAlpha" type="matrix" values="0 0 0 0 0 0 0 0 0 0 0 0 0 0 0 0 0 0 127 0" result="hardAlpha"/>
<feOffset dx="5" dy="5"/>
<feGaussianBlur stdDeviation="5"/>
<feColorMatrix type="matrix" values="0 0 0 0 0.0862745 0 0 0 0 0.360784 0 0 0 0 0.768627 0 0 0 0.161 0"/>
<feBlend mode="normal" in2="BackgroundImageFix" result="effect1_dropShadow_2065_370"/>
<feBlend mode="normal" in="SourceGraphic" in2="effect1_dropShadow_2065_370" result="shape"/>
</filter>
<linearGradient id="paint0_linear_2065_370" x1="42" y1="22" x2="42" y2="62" gradientUnits="userSpaceOnUse">
<stop stop-color="#3D71AF"/>
<stop offset="1" stop-color="#17A6EC" stop-opacity="0.77"/>
</linearGradient>
<linearGradient id="paint1_linear_2065_370" x1="42.0013" y1="24.5" x2="42.0013" y2="59.5" gradientUnits="userSpaceOnUse">
<stop stop-color="#3D71AF"/>
<stop offset="1" stop-color="#17A6EC" stop-opacity="0.77"/>
</linearGradient>
</defs>
</svg>
